<svg width="20" height="21" viewBox="0 0 20 21" fill="none" xmlns="http://www.w3.org/2000/svg">
<g clip-path="url(#clip0_10128_88973)">
<path d="M13.5293 1.67578C12.7091 1.67578 12.0179 2.23828 11.8209 2.99773L5.19862 5.20515H1.76468C0.791639 5.20519 0 5.99683 0 6.96987V10.4992C0 11.4723 0.791639 12.2639 1.76468 12.2639H1.78789L2.39128 17.906C2.47421 18.6783 3.42327 19.5524 4.54566 19.2701C5.47335 19.0384 6.04577 18.1067 5.84104 17.1781L5.71296 15.7914C5.72526 15.7922 5.73749 15.7933 5.74995 15.7933H6.4705C7.44354 15.7933 8.23518 15.0017 8.23518 14.0286V13.2761L11.8208 14.4713C12.0178 15.2308 12.709 15.7933 13.5293 15.7933C14.5023 15.7933 15.294 15.0017 15.294 14.0286V3.4405C15.294 2.46742 14.5024 1.67578 13.5293 1.67578ZM4.25964 18.129C3.95898 18.2046 3.64925 18.0322 3.55601 17.7334L2.97109 12.264H4.20577C4.70593 17.6799 4.67226 17.3504 4.68831 17.415C4.76694 17.73 4.57507 18.0502 4.25964 18.129ZM4.70585 11.0875H1.76468C1.44035 11.0875 1.17644 10.8236 1.17644 10.4992V6.96987C1.17644 6.64554 1.44031 6.38163 1.76468 6.38163H4.70585V11.0875ZM7.05878 14.0286C7.05878 14.353 6.79491 14.6169 6.47053 14.6169H5.74999C5.70149 14.6171 5.65321 14.6233 5.60624 14.6353L5.39323 12.3288L7.05878 12.884V14.0286ZM11.7646 13.2125L5.88233 11.2517V6.21737L11.7646 4.2566V13.2125ZM14.1176 14.0286C14.1176 14.353 13.8537 14.6169 13.5293 14.6169C13.205 14.6169 12.9411 14.353 12.9411 14.0286V3.4405C12.9411 3.11617 13.2049 2.85226 13.5293 2.85226C13.8536 2.85226 14.1176 3.11613 14.1176 3.4405V14.0286ZM19.4116 7.55811H17.0587C16.7338 7.55811 16.4704 7.82147 16.4704 8.14636C16.4704 8.4712 16.7338 8.7346 17.0587 8.7346H19.4116C19.7364 8.7346 19.9998 8.47124 19.9998 8.14636C19.9998 7.82147 19.7365 7.55811 19.4116 7.55811ZM19.9378 4.3539C19.7925 4.06332 19.4391 3.94554 19.1486 4.09085L16.7956 5.2673C16.505 5.41261 16.3873 5.76593 16.5326 6.05651C16.678 6.34726 17.0314 6.46483 17.3218 6.31956L19.6747 5.14312C19.9653 4.99781 20.083 4.64449 19.9378 4.3539ZM19.6747 11.1496L17.3218 9.97315C17.0312 9.82784 16.6779 9.94561 16.5325 10.2362C16.3873 10.5268 16.505 10.8801 16.7956 11.0254L19.1485 12.2019C19.4391 12.3472 19.7925 12.2293 19.9377 11.9388C20.083 11.6482 19.9653 11.2949 19.6747 11.1496Z" fill="#4CA456"/>
</g>
<defs>
<clipPath id="clip0_10128_88973">
<rect width="20" height="20" fill="white" transform="translate(0 0.5)"/>
</clipPath>
</defs>
</svg>
