<svg width="14" height="19" viewBox="0 0 14 19" fill="none" xmlns="http://www.w3.org/2000/svg">
<path d="M12.0007 6.66732H11.1673V5.00065C11.1673 2.70065 9.30065 0.833984 7.00065 0.833984C4.70065 0.833984 2.83398 2.70065 2.83398 5.00065V6.66732H2.00065C1.08398 6.66732 0.333984 7.41732 0.333984 8.33398V16.6673C0.333984 17.584 1.08398 18.334 2.00065 18.334H12.0007C12.9173 18.334 13.6673 17.584 13.6673 16.6673V8.33398C13.6673 7.41732 12.9173 6.66732 12.0007 6.66732ZM4.50065 5.00065C4.50065 3.61732 5.61732 2.50065 7.00065 2.50065C8.38398 2.50065 9.50065 3.61732 9.50065 5.00065V6.66732H4.50065V5.00065ZM12.0007 16.6673H2.00065V8.33398H12.0007V16.6673ZM7.00065 14.1673C7.91732 14.1673 8.66732 13.4173 8.66732 12.5007C8.66732 11.584 7.91732 10.834 7.00065 10.834C6.08398 10.834 5.33398 11.584 5.33398 12.5007C5.33398 13.4173 6.08398 14.1673 7.00065 14.1673Z" fill="#4CA456"/>
</svg>
