<svg width="14" height="14" viewBox="0 0 14 14" fill="none" xmlns="http://www.w3.org/2000/svg">
<path d="M5.3958 0.75H1.0208C0.457901 0.75 0 1.17519 0 1.69788V4.13538C0 4.65817 0.457901 5.08337 1.0208 5.08337H5.3958C5.9588 5.08337 6.4167 4.65817 6.4167 4.13538V1.69788C6.4167 1.17519 5.9588 0.75 5.3958 0.75Z" fill="black"/>
<path d="M5.3958 6.16699H1.0208C0.457901 6.16699 0 6.59219 0 7.11497V12.8025C0 13.3252 0.457901 13.7504 1.0208 13.7504H5.3958C5.9588 13.7504 6.4167 13.3252 6.4167 12.8025V7.11497C6.4167 6.59219 5.9588 6.16699 5.3958 6.16699Z" fill="black"/>
<path d="M12.9779 9.41699H8.60294C8.03993 9.41699 7.58203 9.84219 7.58203 10.365V12.8025C7.58203 13.3252 8.03993 13.7504 8.60294 13.7504H12.9779C13.5408 13.7504 13.9987 13.3252 13.9987 12.8025V10.365C13.9987 9.84219 13.5408 9.41699 12.9779 9.41699Z" fill="black"/>
<path d="M12.9779 0.75H8.60294C8.03993 0.75 7.58203 1.17519 7.58203 1.69788V7.38538C7.58203 7.90817 8.03993 8.33337 8.60294 8.33337H12.9779C13.5408 8.33337 13.9987 7.90817 13.9987 7.38538V1.69788C13.9987 1.17519 13.5408 0.75 12.9779 0.75V0.75Z" fill="black"/>
</svg>
