<svg width="14" height="14" viewBox="0 0 14 14" fill="none" xmlns="http://www.w3.org/2000/svg">
<path d="M5.3958 0.5H1.0208C0.457901 0.5 0 0.925194 0 1.44788V3.88538C0 4.40817 0.457901 4.83337 1.0208 4.83337H5.3958C5.9588 4.83337 6.4167 4.40817 6.4167 3.88538V1.44788C6.4167 0.925194 5.9588 0.5 5.3958 0.5Z" fill="#4CA456"/>
<path d="M5.3958 5.91699H1.0208C0.457901 5.91699 0 6.34219 0 6.86497V12.5525C0 13.0752 0.457901 13.5004 1.0208 13.5004H5.3958C5.9588 13.5004 6.4167 13.0752 6.4167 12.5525V6.86497C6.4167 6.34219 5.9588 5.91699 5.3958 5.91699Z" fill="#4CA456"/>
<path d="M12.9779 9.16699H8.60294C8.03993 9.16699 7.58203 9.59219 7.58203 10.115V12.5525C7.58203 13.0752 8.03993 13.5004 8.60294 13.5004H12.9779C13.5408 13.5004 13.9987 13.0752 13.9987 12.5525V10.115C13.9987 9.59219 13.5408 9.16699 12.9779 9.16699Z" fill="#4CA456"/>
<path d="M12.9779 0.5H8.60294C8.03993 0.5 7.58203 0.925194 7.58203 1.44788V7.13538C7.58203 7.65817 8.03993 8.08337 8.60294 8.08337H12.9779C13.5408 8.08337 13.9987 7.65817 13.9987 7.13538V1.44788C13.9987 0.925194 13.5408 0.5 12.9779 0.5V0.5Z" fill="#4CA456"/>
</svg>
