<svg width="175" height="33" viewBox="0 0 175 33" fill="none" xmlns="http://www.w3.org/2000/svg">
<path fill-rule="evenodd" clip-rule="evenodd" d="M60.5678 4.59496C58.8262 4.99284 57.5319 6.12466 57.0808 7.64413C56.9336 8.14027 56.9313 9.3009 57.0764 9.85941C57.2042 10.3507 57.5088 10.9175 57.8926 11.3782C58.4898 12.0949 59.4994 12.6813 61.3132 13.3651C62.8948 13.9614 63.6247 14.3908 63.8732 14.8713C63.93 14.9812 63.9763 15.254 63.9761 15.4775C63.9755 16.1164 63.6731 16.5184 62.946 16.8468C62.6715 16.9708 62.4875 16.9972 61.944 16.9911C60.8041 16.9781 59.9923 16.7161 59.0294 16.0505L58.5005 15.6849L57.5239 16.6596C56.9868 17.1957 56.5473 17.6698 56.5473 17.7132C56.5473 17.8378 57.7169 18.6376 58.3345 18.9354C59.4095 19.4537 60.6223 19.7031 62.0696 19.7035C64.4091 19.7041 66.2611 18.5137 66.8507 16.6301C67.0099 16.1217 67.0395 15.1131 66.9133 14.5032C66.786 13.8886 66.3941 13.1547 65.9515 12.7023C65.2503 11.9858 64.4734 11.5452 62.785 10.9068C61.0211 10.2399 60.2379 9.76185 60.0062 9.21055C59.7123 8.5113 60.0372 7.78304 60.8226 7.38018C61.276 7.14757 61.2821 7.14659 62.0841 7.17721C63.1239 7.21681 63.6306 7.40457 64.4716 8.06184L64.6513 8.20236L65.654 7.19781L66.6568 6.19327L66.1402 5.80717C64.939 4.90951 63.8681 4.56798 62.1192 4.52452C61.3197 4.50469 60.8744 4.52487 60.5678 4.59496ZM86.0816 4.59706C84.4535 4.85 83.0538 5.54834 81.851 6.70784C80.3183 8.1854 79.5356 10.008 79.5356 12.0994C79.5356 14.0915 80.2427 15.8363 81.6329 17.2742C84.4063 20.1429 88.7099 20.5189 91.9628 18.1767C93.3618 17.1695 94.4049 15.6334 94.8631 13.906C95.0225 13.3047 95.0448 13.0834 95.0448 12.0994C95.0448 11.11 95.0229 10.8956 94.8595 10.2787C93.8405 6.43331 90.051 3.98045 86.0816 4.59706ZM125.117 4.59496C123.376 4.99284 122.081 6.12466 121.63 7.64413C121.483 8.14027 121.481 9.3009 121.626 9.85941C121.754 10.3507 122.058 10.9175 122.442 11.3782C123.039 12.0949 124.049 12.6813 125.863 13.3651C127.444 13.9614 128.174 14.3908 128.422 14.8713C128.479 14.9812 128.526 15.254 128.525 15.4775C128.525 16.1164 128.222 16.5184 127.495 16.8468C127.221 16.9708 127.037 16.9972 126.493 16.9911C125.353 16.9781 124.542 16.7161 123.579 16.0505L123.05 15.6849L122.073 16.6596C121.536 17.1957 121.097 17.6698 121.097 17.7132C121.097 17.8378 122.266 18.6376 122.884 18.9354C123.959 19.4537 125.172 19.7031 126.619 19.7035C128.958 19.7041 130.81 18.5137 131.4 16.6301C131.559 16.1217 131.589 15.1131 131.463 14.5032C131.335 13.8886 130.943 13.1547 130.501 12.7023C129.8 11.9858 129.023 11.5452 127.334 10.9068C125.57 10.2399 124.787 9.76185 124.556 9.21055C124.262 8.5113 124.587 7.78304 125.372 7.38018C125.825 7.14757 125.831 7.14659 126.633 7.17721C127.673 7.21681 128.18 7.40457 129.021 8.06184L129.201 8.20236L130.203 7.19781L131.206 6.19327L130.689 5.80717C129.488 4.90951 128.417 4.56798 126.669 4.52452C125.869 4.50469 125.424 4.52487 125.117 4.59496ZM167.578 4.57008C164.672 4.94749 162.216 6.92049 161.229 9.67004C160.582 11.4736 160.732 13.6811 161.624 15.4635C162.148 16.5095 163.219 17.7143 164.2 18.3597C166.403 19.8101 169.277 20.1129 171.63 19.1425C172.627 18.7315 173.783 17.9265 174.463 17.1709L174.783 16.8142L174.158 16.1388C173.814 15.7674 173.372 15.307 173.176 15.1157L172.82 14.768L172.358 15.2749C171.237 16.5023 169.969 17.0404 168.407 16.9507C167.119 16.8768 166.097 16.4114 165.139 15.462C164.675 15.002 164.512 14.779 164.244 14.2355C163.534 12.7974 163.529 11.4117 164.229 9.99412C165.318 7.78696 167.893 6.70595 170.22 7.47886C171.077 7.76369 171.876 8.31695 172.529 9.07809L172.763 9.35094L173.738 8.37821C174.274 7.84317 174.713 7.37815 174.713 7.34472C174.713 7.22599 173.758 6.33646 173.241 5.97286C171.556 4.78917 169.608 4.30649 167.578 4.57008ZM33.5591 12.0979V19.4234H34.9962H36.4332L36.4154 12.1169L36.3976 4.8104L34.9783 4.79141L33.5591 4.77248V12.0979ZM39.0959 12.0948V19.4234H42.4102C46.1283 19.4234 46.1255 19.4236 47.1558 18.9211C48.3884 18.32 49.2921 17.1084 49.4823 15.8021C49.6897 14.3773 49.0068 12.8023 47.8635 12.0687L47.5196 11.848L47.7312 11.6233C48.0856 11.2467 48.47 10.6093 48.6408 10.1152C48.8678 9.45837 48.8639 8.24708 48.6327 7.57881C48.1837 6.28102 47.187 5.3685 45.7433 4.93375C45.4296 4.83928 44.8575 4.81643 42.2322 4.79358L39.0959 4.76625V12.0948ZM68.1115 6.07195V7.36855H70.109H72.1064V13.396V19.4234H73.5783H75.0501V13.396V7.36855H77.0475H79.045V6.07195V4.77536H73.5783H68.1115V6.07195ZM97.2674 12.0956V19.4234H98.6691H100.071V16.5055V13.5876L100.964 13.6229C102.1 13.6678 102.526 13.8147 103.096 14.3587C103.631 14.8686 103.872 15.3907 104.483 17.3558C104.759 18.2424 105.017 19.0703 105.056 19.1956L105.128 19.4234H106.696H108.264L108.059 18.9853C107.947 18.7444 107.59 17.7904 107.265 16.8652C106.453 14.5504 106.406 14.4344 106.093 13.9656C105.81 13.542 105.54 13.2985 105.036 13.012L104.749 12.8494L105.056 12.7122C106.403 12.1089 107.434 10.475 107.429 8.95011C107.425 7.99435 106.988 6.88502 106.336 6.18143C105.833 5.63826 105.297 5.28888 104.559 5.02487L103.961 4.8104L100.614 4.78917L97.2674 4.76786V12.0956ZM109.953 12.0994V19.4234H114.789H119.625V18.1969V16.9704H116.191H112.756V14.9736V12.9768L116.138 12.9586L119.52 12.9404L119.539 11.8015L119.558 10.6626H116.157H112.756V8.91044V7.15829H116.191H119.625V5.96682V4.77536H114.789H109.953V12.0994ZM139.319 12.0994V19.4234H144.26H149.201V18.0573V16.6913L145.714 16.6731L142.228 16.655L142.21 10.7152L142.192 4.77536H140.755H139.319V12.0994ZM150.813 12.0994V19.4234H155.754H160.695V18.0573V16.6913L157.209 16.6731L153.722 16.655L153.704 10.7152L153.686 4.77536H152.25H150.813V12.0994ZM100.071 9.14916V11.4335H101.144C102.767 11.4335 103.376 11.2709 103.94 10.6861C104.339 10.2724 104.514 9.81603 104.517 9.18189C104.519 8.70706 104.492 8.59393 104.275 8.1683C104.097 7.8199 103.935 7.617 103.68 7.42447C103.095 6.98244 102.862 6.92854 101.385 6.89483L100.071 6.86484V9.14916ZM41.9694 8.93729V10.9429H43.0834C44.393 10.9429 44.9076 10.8257 45.3829 10.4188C45.805 10.0575 45.9799 9.64852 45.9799 9.02258C45.9799 8.38227 45.8211 8.00009 45.3913 7.60579C44.8635 7.1217 44.4359 7.00143 43.1083 6.96387L41.9694 6.93156V8.93729ZM86.1587 7.36602C85.5081 7.53829 85.0886 7.72521 84.5852 8.06702C81.4314 10.2088 81.7918 14.8594 85.2405 16.5221C85.9654 16.8715 86.6169 16.9938 87.5498 16.9551C88.8729 16.9003 89.7337 16.5093 90.7564 15.4985C91.2443 15.0162 91.4144 14.7894 91.6496 14.3071C92.0438 13.4988 92.1744 12.9492 92.1744 12.0994C92.1744 10.7441 91.7287 9.67761 90.7513 8.6943C90.2545 8.19458 90.0406 8.0371 89.4876 7.76412C89.1215 7.58343 88.6012 7.3895 88.3314 7.33315C87.6622 7.19354 86.7584 7.20721 86.1587 7.36602ZM41.9694 15.0491V17.0527L43.4237 17.0256C44.7449 17.001 44.9158 16.9836 45.292 16.8351C46.1393 16.5007 46.5611 15.8392 46.5146 14.9178C46.4834 14.3008 46.2515 13.8573 45.767 13.4878C45.2705 13.1091 44.9242 13.0455 43.3584 13.0455H41.9694V15.0491ZM52.0643 22.729C51.7142 22.9109 51.5645 23.04 51.4057 23.2969C51.026 23.9109 51.0828 24.5893 51.5577 25.1149C51.8257 25.4116 52.1487 25.5945 52.9584 25.9081C53.5713 26.1455 53.814 26.3493 53.814 26.6267C53.814 27.2536 52.6505 27.3857 51.9541 26.838L51.7684 26.6919L51.3741 27.0862C50.9942 27.466 50.9849 27.4842 51.1178 27.5842C52.1414 28.3537 53.6222 28.443 54.4207 27.7834C54.7688 27.4957 54.9353 27.1362 54.9353 26.6721C54.9353 26.1348 54.8724 25.9571 54.5591 25.6104C54.3269 25.3534 54.1764 25.27 52.9554 24.7223C52.5417 24.5368 52.395 24.4333 52.3398 24.2883C52.2304 24.0003 52.3435 23.7541 52.6565 23.5992C52.8945 23.4814 52.9746 23.4745 53.3031 23.5434C53.5093 23.5866 53.7664 23.685 53.8745 23.7619L54.071 23.9018L54.4475 23.5206C54.8123 23.1512 54.8197 23.136 54.6869 23.0294C54.3033 22.7214 53.7812 22.5489 53.1481 22.5212C52.5434 22.4946 52.4987 22.5032 52.0643 22.729ZM68.6046 22.729C68.2545 22.9109 68.1048 23.04 67.946 23.2969C67.5663 23.9109 67.6231 24.5893 68.098 25.1149C68.366 25.4116 68.689 25.5945 69.4987 25.9081C70.1117 26.1455 70.3543 26.3493 70.3543 26.6267C70.3543 27.2536 69.1909 27.3857 68.4944 26.838L68.3088 26.6919L67.9145 27.0862C67.5345 27.466 67.5252 27.4842 67.6582 27.5842C68.6818 28.3537 70.1625 28.443 70.961 27.7834C71.3092 27.4957 71.4757 27.1362 71.4757 26.6721C71.4757 26.1348 71.4127 25.9571 71.0995 25.6104C70.8672 25.3534 70.7167 25.27 69.4957 24.7223C69.082 24.5368 68.9353 24.4333 68.8802 24.2883C68.7707 24.0003 68.8838 23.7541 69.1968 23.5992C69.4348 23.4814 69.5149 23.4745 69.8434 23.5434C70.0496 23.5866 70.3068 23.685 70.4149 23.7619L70.6114 23.9018L70.9878 23.5206C71.3526 23.1512 71.36 23.136 71.2272 23.0294C70.8436 22.7214 70.3215 22.5489 69.6885 22.5212C69.0838 22.4946 69.039 22.5032 68.6046 22.729ZM73.0901 22.729C72.74 22.9109 72.5903 23.04 72.4315 23.2969C72.0519 23.9109 72.1086 24.5893 72.5835 25.1149C72.8515 25.4116 73.1746 25.5945 73.9842 25.9081C74.5972 26.1455 74.8398 26.3493 74.8398 26.6267C74.8398 27.2536 73.6764 27.3857 72.9799 26.838L72.7943 26.6919L72.4 27.0862C72.02 27.466 72.0107 27.4842 72.1437 27.5842C73.1673 28.3537 74.6481 28.443 75.4465 27.7834C75.7947 27.4957 75.9612 27.1362 75.9612 26.6721C75.9612 26.1348 75.8983 25.9571 75.585 25.6104C75.3527 25.3534 75.2022 25.27 73.9813 24.7223C73.5675 24.5368 73.4208 24.4333 73.3657 24.2883C73.2562 24.0003 73.3693 23.7541 73.6823 23.5992C73.9203 23.4814 74.0005 23.4745 74.329 23.5434C74.5351 23.5866 74.7923 23.685 74.9004 23.7619L75.0969 23.9018L75.4733 23.5206C75.8381 23.1512 75.8455 23.136 75.7127 23.0294C75.3292 22.7214 74.807 22.5489 74.174 22.5212C73.5693 22.4946 73.5245 22.5032 73.0901 22.729ZM104.74 22.5807C103.95 22.7789 103.154 23.4326 102.783 24.1873C102.573 24.6128 102.559 24.6902 102.561 25.3794C102.562 26.048 102.582 26.1558 102.766 26.5371C103.629 28.3174 106 28.7787 107.428 27.4435L107.78 27.1136V26.1771V25.2405H106.694H105.608V25.6961V26.1516H106.168H106.729V26.4269C106.729 26.7605 106.535 26.9409 106.006 27.0979C105.532 27.2386 105.265 27.2303 104.812 27.0605C104.36 26.8917 103.853 26.3892 103.712 25.9725C103.572 25.5563 103.596 25.0458 103.776 24.6456C104.072 23.9856 104.571 23.6337 105.294 23.5757C105.894 23.5275 106.305 23.6512 106.7 23.9992L107.021 24.2812L107.383 23.9153L107.745 23.5492L107.43 23.2634C106.913 22.7945 106.337 22.5632 105.62 22.5357C105.285 22.5229 104.889 22.5431 104.74 22.5807ZM138.268 22.598C137.411 22.8434 136.745 23.3928 136.363 24.1696C136.143 24.6153 136.13 24.6845 136.132 25.3794C136.134 26.048 136.153 26.1558 136.338 26.5371C136.595 27.0692 137.205 27.6828 137.714 27.9229C138.846 28.457 140.207 28.2433 141.083 27.3941L141.367 27.1179L140.997 26.7437L140.628 26.3694L140.282 26.6804C139.938 26.9899 139.431 27.2029 139.039 27.2029C138.404 27.2029 137.643 26.7079 137.351 26.1046C137.006 25.3929 137.252 24.4286 137.903 23.9313C138.631 23.3764 139.698 23.4517 140.351 24.104C140.585 24.3384 140.592 24.3405 140.733 24.2135C140.812 24.1423 140.974 23.961 141.093 23.8105L141.31 23.5369L140.998 23.2572C140.482 22.7947 139.904 22.5635 139.191 22.5334C138.826 22.5179 138.457 22.5437 138.268 22.598ZM143.526 22.6195C142.724 22.8351 142.077 23.3819 141.687 24.1744C141.47 24.6146 141.457 24.686 141.459 25.3794C141.46 26.048 141.479 26.1558 141.664 26.5371C141.92 27.0646 142.526 27.6783 143.04 27.9287C144.174 28.4814 145.497 28.2527 146.402 27.3476C146.935 26.8153 147.176 26.2889 147.221 25.5559C147.265 24.8495 147.138 24.3687 146.753 23.7925C146.064 22.7607 144.762 22.2874 143.526 22.6195ZM34.6165 22.8717C34.5439 23.0374 33.9741 24.2453 33.3504 25.5559C32.7265 26.8665 32.1995 27.9783 32.1792 28.0264C32.1514 28.0925 32.2887 28.114 32.7389 28.114H33.3353L33.5984 27.5534L33.8615 26.9927H35.1724H36.4832L36.7395 27.5534L36.9957 28.114H37.5878H38.1798L38.049 27.8162C37.977 27.6523 37.3952 26.4145 36.756 25.0653L35.5939 22.6123L35.1712 22.5914L34.7484 22.5705L34.6165 22.8717ZM40.9181 25.3377V28.114L42.2322 28.1125C43.4032 28.1111 43.5807 28.0954 43.8617 27.968C44.2856 27.7758 44.4794 27.5855 44.6763 27.1679C44.9626 26.5609 44.8457 25.9508 44.3509 25.4696C44.133 25.2576 44.1254 25.2349 44.2326 25.1165C44.7138 24.5849 44.6477 23.5692 44.0983 23.054C43.7071 22.6872 43.4393 22.6243 42.1271 22.5915L40.9181 22.5613V25.3377ZM45.4881 24.5221C45.5092 26.3542 45.5195 26.4864 45.6651 26.8006C45.8957 27.298 46.3868 27.784 46.8848 28.0075C47.2803 28.1849 47.366 28.1972 48.0226 28.1705C48.5826 28.1476 48.7963 28.1084 49.0335 27.9847C49.7114 27.6313 50.1837 26.9246 50.3161 26.0656C50.3534 25.8238 50.3751 24.9479 50.3643 24.1191L50.3447 22.6123L49.8015 22.5918L49.2584 22.5714L49.2546 24.3089C49.2502 26.2856 49.2071 26.5058 48.753 26.8727C48.279 27.2557 47.4757 27.2248 47.0118 26.8057C46.5776 26.4135 46.525 26.1329 46.525 24.2115V22.5772H45.9953H45.4656L45.4881 24.5221ZM57.8089 25.3456V28.114H58.3334H58.8579L58.8766 26.2392L58.8952 24.3644L60.0867 26.236L61.2781 28.1076L61.8213 28.1108L62.3645 28.114V25.3456V22.5772H61.84H61.3156L61.2969 24.3568L61.2781 26.1364L60.1277 24.3568L58.9773 22.5772H58.393H57.8089V25.3456ZM78.9048 25.3456V28.114H79.4293H79.9537L79.9724 26.3227L79.9911 24.5314L80.7523 25.8847C81.171 26.629 81.5384 27.2648 81.569 27.2977C81.5995 27.3306 82.0056 26.7156 82.4713 25.931L83.3181 24.5046L83.3192 26.3093L83.3202 28.114H83.8459H84.3715V25.3428V22.5716L83.7982 22.592L83.2248 22.6123L82.9311 23.1029C82.7696 23.3727 82.4093 23.9817 82.1303 24.4563L81.6232 25.319L80.8537 23.9481L80.0841 22.5772H79.4944H78.9048V25.3456ZM87.3913 22.8717C87.3188 23.0374 86.749 24.2453 86.1252 25.5559C85.5014 26.8665 84.9744 27.9783 84.9541 28.0264C84.9263 28.0925 85.0636 28.114 85.5137 28.114H86.1102L86.3733 27.5534L86.6364 26.9927H87.9473H89.2581L89.5144 27.5534L89.7706 28.114H90.3626H90.9546L90.8239 27.8162C90.7519 27.6523 90.1701 26.4145 89.5309 25.0653L88.3687 22.6123L87.9461 22.5914L87.5233 22.5705L87.3913 22.8717ZM91.5203 25.3456V28.114H92.0448H92.5693L92.588 26.2392L92.6067 24.3644L93.7981 26.236L94.9896 28.1076L95.5327 28.1108L96.0759 28.114V25.3456V22.5772H95.5515H95.027L95.0083 24.3568L94.9896 26.1364L93.8391 24.3568L92.6887 22.5772H92.1045H91.5203V25.3456ZM99.0256 22.8717C98.9531 23.0374 98.3833 24.2453 97.7595 25.5559C97.1357 26.8665 96.6087 27.9783 96.5884 28.0264C96.5606 28.0925 96.6979 28.114 97.148 28.114H97.7445L98.0076 27.5534L98.2707 26.9927H99.5816H100.892L101.149 27.5534L101.405 28.114H101.997H102.589L102.458 27.8162C102.386 27.6523 101.804 26.4145 101.165 25.0653L100.003 22.6123L99.5804 22.5914L99.1576 22.5705L99.0256 22.8717ZM113.107 25.3456V28.114H113.631H114.156L114.174 26.3227L114.193 24.5314L114.954 25.8847C115.373 26.629 115.74 27.2648 115.771 27.2977C115.802 27.3306 116.208 26.7156 116.673 25.931L117.52 24.5046L117.521 26.3093L117.522 28.114H118.048H118.574V25.3428V22.5716L118 22.592L117.427 22.6123L117.133 23.1029C116.972 23.3727 116.611 23.9817 116.332 24.4563L115.825 25.319L115.056 23.9481L114.286 22.5772H113.696H113.107V25.3456ZM124.04 25.3456V28.114H124.565H125.089L125.108 26.2392L125.127 24.3644L126.318 26.236L127.51 28.1076L128.053 28.1108L128.596 28.114V25.3456V22.5772H128.071H127.547L127.528 24.3568L127.51 26.1364L126.359 24.3568L125.209 22.5772H124.624H124.04V25.3456ZM148.08 25.3456V28.114H148.604H149.129L149.147 26.3227L149.166 24.5314L149.927 25.8847C150.346 26.629 150.713 27.2648 150.744 27.2977C150.775 27.3306 151.181 26.7156 151.646 25.931L152.493 24.5046L152.494 26.3093L152.495 28.114H153.021H153.547V25.3428V22.5716L152.973 22.592L152.4 22.6123L152.106 23.1029C151.945 23.3727 151.584 23.9817 151.305 24.4563L150.798 25.319L150.029 23.9481L149.259 22.5772H148.669H148.08V25.3456ZM160.281 22.8717C160.208 23.0374 159.639 24.2453 159.015 25.5559C158.391 26.8665 157.864 27.9783 157.844 28.0264C157.816 28.0925 157.953 28.114 158.403 28.114H159L159.263 27.5534L159.526 26.9927H160.837H162.148L162.404 27.5534L162.66 28.114H163.252H163.844L163.713 27.8162C163.641 27.6523 163.06 26.4145 162.421 25.0653L161.258 22.6123L160.836 22.5914L160.413 22.5705L160.281 22.8717ZM164.41 25.3456V28.114H164.934H165.459L165.478 26.2392L165.496 24.3644L166.688 26.236L167.879 28.1076L168.422 28.1108L168.966 28.114V25.3456V22.5772H168.441H167.917L167.898 24.3568L167.879 26.1364L166.729 24.3568L165.578 22.5772H164.994H164.41V25.3456ZM55.7063 25.3807V28.114H56.2319H56.7576V25.3807V22.6473H56.2319H55.7063V25.3807ZM63.4158 25.3807V28.114H65.238H67.0602V27.6585V27.2029H65.7637H64.4671V26.432V25.661H65.7286H66.9902V25.2405V24.82H65.7286H64.4671V24.1542V23.4884H65.7637H67.0602V23.0678V22.6473H65.238H63.4158V25.3807ZM108.621 25.3807V28.114H110.444H112.266V27.6585V27.2029H110.969H109.673V26.432V25.661H110.934H112.196V25.2405V24.82H110.934H109.673V24.1542V23.4884H110.969H112.266V23.0678V22.6473H110.444H108.621V25.3807ZM119.625 25.3807V28.114H121.447H123.269V27.6585V27.2029H121.973H120.676V26.432V25.661H121.938H123.199V25.2405V24.82H121.938H120.676V24.1542V23.4884H121.973H123.269V23.0678V22.6473H121.447H119.625V25.3807ZM129.297 23.1005V23.5537L130.05 23.5736L130.804 23.5935L130.822 25.8538L130.841 28.114H131.365H131.89V25.8363V23.5584H132.661H133.432V23.1029V22.6473H131.364H129.297V23.1005ZM154.598 25.3807V28.114H155.123H155.649V27.2481V26.3823L156.354 26.3435C156.926 26.3119 157.131 26.2691 157.445 26.1155C158.556 25.5717 158.793 24.0438 157.903 23.1541C157.452 22.703 157.238 22.6506 155.842 22.6489L154.598 22.6473V25.3807ZM169.596 22.6773C169.596 22.6938 170.069 23.4267 170.648 24.306L171.699 25.9046V27.0094V28.114H172.225H172.75V27.0045V25.895L173.565 24.7092C174.013 24.057 174.519 23.3263 174.69 23.0854L175 22.6473H174.338H173.675L172.993 23.7161C172.618 24.304 172.288 24.8107 172.259 24.8421C172.231 24.8735 171.898 24.3925 171.518 23.7733L170.827 22.6473H170.212C169.873 22.6473 169.596 22.6609 169.596 22.6773ZM41.9694 24.1986V24.979L42.443 24.9451C43.0281 24.9033 43.3309 24.7559 43.4329 24.4634C43.6448 23.8554 43.1733 23.4197 42.3023 23.4187L41.9694 23.4183V24.1986ZM155.649 24.4603V25.5209H156.055C157.296 25.5209 157.829 24.3033 156.893 23.6051C156.763 23.5075 156.557 23.4581 156.179 23.4339L155.649 23.3998V24.4603ZM143.625 23.6909C142.453 24.2234 142.145 25.7429 143.03 26.6282C143.419 27.0173 143.775 27.1638 144.33 27.1638C144.885 27.1638 145.241 27.0173 145.63 26.6282C146.749 25.5092 145.924 23.5615 144.33 23.5615C144.071 23.5615 143.8 23.6112 143.625 23.6909ZM34.7167 25.1529C34.4902 25.6444 34.2929 26.0702 34.2782 26.0991C34.2636 26.1279 34.6478 26.1516 35.1319 26.1516C35.6787 26.1516 36.0121 26.1248 36.0121 26.0807C36.0121 25.9728 35.2219 24.2593 35.172 24.2593C35.1481 24.2593 34.9432 24.6614 34.7167 25.1529ZM87.4916 25.1529C87.265 25.6444 87.0677 26.0702 87.0531 26.0991C87.0385 26.1279 87.4227 26.1516 87.9067 26.1516C88.4536 26.1516 88.787 26.1248 88.787 26.0807C88.787 25.9728 87.9967 24.2593 87.9469 24.2593C87.9229 24.2593 87.7181 24.6614 87.4916 25.1529ZM99.1259 25.1529C98.8993 25.6444 98.702 26.0702 98.6874 26.0991C98.6728 26.1279 99.057 26.1516 99.541 26.1516C100.088 26.1516 100.421 26.1248 100.421 26.0807C100.421 25.9728 99.631 24.2593 99.5812 24.2593C99.5572 24.2593 99.3524 24.6614 99.1259 25.1529ZM160.381 25.1529C160.155 25.6444 159.957 26.0702 159.943 26.0991C159.928 26.1279 160.312 26.1516 160.796 26.1516C161.343 26.1516 161.677 26.1248 161.677 26.0807C161.677 25.9728 160.886 24.2593 160.836 24.2593C160.813 24.2593 160.608 24.6614 160.381 25.1529ZM41.9694 26.4602V27.2029L42.5476 27.2026C43.0018 27.2024 43.175 27.1724 43.3554 27.0625C43.7689 26.8103 43.824 26.2681 43.4697 25.9351C43.3111 25.7859 43.2127 25.7633 42.6297 25.7418L41.9694 25.7176V26.4602Z" fill="#394141"/>
<path fill-rule="evenodd" clip-rule="evenodd" d="M12.8801 0.510598C11.24 0.570331 9.68027 0.852927 8.36668 1.32832C8.16257 1.4022 8.0455 1.43312 8.03938 1.41475C8.03239 1.39379 6.95755 1.38616 4.01493 1.38616H0V16.434V31.4818L4.04893 31.4886L8.09786 31.4954L8.5442 31.6529C9.45774 31.9752 10.526 32.2214 11.6176 32.3611C12.9047 32.5258 14.536 32.5459 15.6984 32.4113C18.5024 32.0866 20.8296 31.065 22.47 29.4386C22.9472 28.9655 23.3038 28.5288 23.6758 27.9617C24.5591 26.6156 25.0413 25.1701 25.1755 23.4665C25.2148 22.9675 25.1932 21.9116 25.137 21.5862C24.756 19.3788 23.1514 17.3642 20.9014 16.2685C20.6629 16.1524 20.3961 16.0303 20.3084 15.9972C20.2208 15.9641 20.149 15.9313 20.1491 15.9242C20.1491 15.9171 20.2151 15.877 20.2957 15.835C21.0642 15.435 21.8666 14.846 22.4837 14.2289C23.0612 13.6514 23.5044 13.0541 23.8577 12.3771C24.4644 11.2148 24.7011 10.1256 24.6142 8.8974C24.4945 7.20649 23.9806 5.91313 22.8864 4.54882C21.5514 2.88433 19.4305 1.60543 16.9056 0.942552C15.5873 0.596448 14.3038 0.458721 12.8801 0.510598ZM1.59833 3.13752C1.58897 3.14685 1.58131 4.23719 1.58131 5.5605V7.96647H3.94053H6.29975V5.54349V3.12051H3.95755C2.66931 3.12051 1.60766 3.12816 1.59833 3.13752ZM12.9821 6.0804C11.1718 6.23562 9.65227 6.82236 8.34949 7.86919L8.0341 8.12264V16.4962V24.8698L8.37204 25.0988C9.69524 25.9958 11.1033 26.5636 12.574 26.7934C13.0768 26.8719 14.3058 26.8794 14.7674 26.8068C15.4702 26.6963 16.0134 26.5275 16.591 26.2403C17.0453 26.0144 17.3644 25.7927 17.7095 25.4629C18.3802 24.8223 18.7796 24.0869 18.9422 23.193C19.0054 22.8456 19.0052 21.993 18.9419 21.6754C18.8104 21.0162 18.5925 20.5742 18.1928 20.1559C17.2964 19.2175 15.8642 18.6233 13.9895 18.4118C13.6083 18.3687 12.5091 18.3061 11.7005 18.2813L11.1457 18.2643V16.1161V13.9678L11.6877 13.9502C13.1857 13.9014 14.1978 13.7851 15.0352 13.5655C16.0338 13.3036 16.75 12.9457 17.3673 12.4002C17.9681 11.8693 18.2848 11.2735 18.3912 10.4742C18.435 10.1451 18.4074 9.39781 18.3398 9.08362C18.1878 8.37687 17.8656 7.80002 17.3348 7.28482C16.6861 6.65505 15.8649 6.28604 14.7292 6.11396C14.4227 6.06754 13.3684 6.04729 12.9821 6.0804ZM1.65783 20.5022V29.8243H3.95329H6.24874V20.5022V11.1801H3.95329H1.65783V20.5022Z" fill="#4CA456"/>
<rect y="1.3418" width="8.08511" height="30.147" fill="#7AC968"/>
<rect x="1.58203" y="3.07617" width="4.74394" height="4.92248" fill="white"/>
<rect x="1.58203" y="10.9316" width="4.74394" height="18.9758" fill="white"/>
</svg>
