<svg width="20" height="21" viewBox="0 0 20 21" fill="none" xmlns="http://www.w3.org/2000/svg">
<path d="M16.192 11.568C16.2254 11.3013 16.2504 11.0346 16.2504 10.7513C16.2504 10.468 16.2254 10.2013 16.192 9.93464L17.9504 8.55964C18.1087 8.43464 18.1504 8.20964 18.0504 8.0263L16.3837 5.14297C16.3087 5.00964 16.167 4.93464 16.017 4.93464C15.967 4.93464 15.917 4.94297 15.8754 4.95964L13.8004 5.79297C13.367 5.45964 12.9004 5.18464 12.392 4.9763L12.0754 2.76797C12.0504 2.56797 11.8754 2.41797 11.667 2.41797H8.33369C8.12535 2.41797 7.95035 2.56797 7.92535 2.76797L7.60869 4.9763C7.10035 5.18464 6.63369 5.46797 6.20035 5.79297L4.12535 4.95964C4.07535 4.94297 4.02535 4.93464 3.97535 4.93464C3.83369 4.93464 3.69202 5.00964 3.61702 5.14297L1.95035 8.0263C1.84202 8.20964 1.89202 8.43464 2.05035 8.55964L3.80869 9.93464C3.77535 10.2013 3.75035 10.4763 3.75035 10.7513C3.75035 11.0263 3.77535 11.3013 3.80869 11.568L2.05035 12.943C1.89202 13.068 1.85035 13.293 1.95035 13.4763L3.61702 16.3596C3.69202 16.493 3.83369 16.568 3.98369 16.568C4.03369 16.568 4.08369 16.5596 4.12535 16.543L6.20035 15.7096C6.63369 16.043 7.10035 16.318 7.60869 16.5263L7.92535 18.7346C7.95035 18.9346 8.12535 19.0846 8.33369 19.0846H11.667C11.8754 19.0846 12.0504 18.9346 12.0754 18.7346L12.392 16.5263C12.9004 16.318 13.367 16.0346 13.8004 15.7096L15.8754 16.543C15.9254 16.5596 15.9754 16.568 16.0254 16.568C16.167 16.568 16.3087 16.493 16.3837 16.3596L18.0504 13.4763C18.1504 13.293 18.1087 13.068 17.9504 12.943L16.192 11.568ZM14.542 10.143C14.5754 10.4013 14.5837 10.5763 14.5837 10.7513C14.5837 10.9263 14.567 11.1096 14.542 11.3596L14.4254 12.3013L15.167 12.8846L16.067 13.5846L15.4837 14.593L14.4254 14.168L13.5587 13.818L12.8087 14.3846C12.4504 14.6513 12.1087 14.8513 11.767 14.993L10.8837 15.3513L10.7504 16.293L10.5837 17.418H9.41702L9.25869 16.293L9.12535 15.3513L8.24202 14.993C7.88369 14.843 7.55035 14.6513 7.21702 14.4013L6.45869 13.818L5.57535 14.1763L4.51702 14.6013L3.93369 13.593L4.83369 12.893L5.57535 12.3096L5.45869 11.368C5.43369 11.1096 5.41702 10.918 5.41702 10.7513C5.41702 10.5846 5.43369 10.393 5.45869 10.143L5.57535 9.2013L4.83369 8.61797L3.93369 7.91797L4.51702 6.90964L5.57535 7.33464L6.44202 7.68464L7.19202 7.11797C7.55035 6.8513 7.89202 6.6513 8.23369 6.50964L9.11702 6.1513L9.25035 5.20964L9.41702 4.08464H10.5754L10.7337 5.20964L10.867 6.1513L11.7504 6.50964C12.1087 6.65964 12.442 6.8513 12.7754 7.1013L13.5337 7.68464L14.417 7.3263L15.4754 6.9013L16.0587 7.90964L15.167 8.61797L14.4254 9.2013L14.542 10.143ZM10.0004 7.41797C8.15869 7.41797 6.66702 8.90964 6.66702 10.7513C6.66702 12.593 8.15869 14.0846 10.0004 14.0846C11.842 14.0846 13.3337 12.593 13.3337 10.7513C13.3337 8.90964 11.842 7.41797 10.0004 7.41797ZM10.0004 12.418C9.08369 12.418 8.33369 11.668 8.33369 10.7513C8.33369 9.83464 9.08369 9.08464 10.0004 9.08464C10.917 9.08464 11.667 9.83464 11.667 10.7513C11.667 11.668 10.917 12.418 10.0004 12.418Z" fill="black" fill-opacity="0.8"/>
</svg>
