<svg width="16" height="16" viewBox="0 0 16 16" fill="none" xmlns="http://www.w3.org/2000/svg">
<path d="M13.8333 0.75H2.16667C1.25 0.75 0.5 1.5 0.5 2.41667V8.25C0.5 9.16667 1.25 9.91667 2.16667 9.91667H13.8333C14.75 9.91667 15.5 9.16667 15.5 8.25V2.41667C15.5 1.5 14.75 0.75 13.8333 0.75ZM2.16667 6.58333H4.775C4.95 7.23333 5.33333 7.80833 5.83333 8.25H2.16667V6.58333ZM13.8333 8.25H10.1667C10.6667 7.80833 11.05 7.23333 11.225 6.58333H13.8333V8.25ZM13.8333 4.91667H9.66667V5.75C9.66667 6.64167 8.89167 7.41667 8 7.41667C7.10833 7.41667 6.33333 6.64167 6.33333 5.75V4.91667H2.16667V2.41667H13.8333V4.91667ZM9.66667 10.75V11.5833C9.66667 11.975 9.50833 12.3333 9.26667 12.625C8.95833 13 8.5 13.25 8 13.25C7.5 13.25 7.04167 13 6.73333 12.625C6.49167 12.3333 6.33333 11.975 6.33333 11.5833V10.75H0.5V14.0833C0.5 15 1.25 15.75 2.16667 15.75H13.8333C14.75 15.75 15.5 15 15.5 14.0833V10.75H9.66667ZM2.16667 12.4167H4.775C4.79167 12.4917 4.825 12.5583 4.85 12.625C5.05 13.1917 5.39167 13.6917 5.83333 14.0833H2.16667V12.4167ZM13.8333 14.0833H10.1667C10.6167 13.6917 10.9583 13.1917 11.15 12.625C11.175 12.5583 11.2083 12.4917 11.225 12.4167H13.8333V14.0833Z" fill="black"/>
</svg>
