<svg width="56" height="56" viewBox="0 0 56 56" fill="none" xmlns="http://www.w3.org/2000/svg">
<rect width="56" height="56" rx="6" fill="#C4C4C4"/>
<path d="M42.6619 32.3352C40.9124 30.9279 38.9916 29.7679 36.9188 28.9121C34.7127 31.4604 31.4417 33.0769 27.8093 33.0769C24.139 33.0769 20.849 31.4224 18.6239 28.8359C16.4939 29.7108 14.5162 30.8899 12.7285 32.3352C15.2198 38.1355 21.0011 42.2053 27.6952 42.2053C34.3894 42.2053 40.1707 38.1355 42.6619 32.3352Z" fill="black" fill-opacity="0.6"/>
<path d="M27.8106 29.2735C32.3766 29.2735 36.0918 25.5583 36.0918 21.0098C36.0918 16.4438 32.3766 12.7285 27.8106 12.7285C23.2447 12.7285 19.5469 16.4438 19.5469 21.0098C19.5469 25.5583 23.2447 29.2735 27.8106 29.2735Z" fill="black" fill-opacity="0.6"/>
</svg>
